Genre:Mystery | Thriller
Language:English
IMDb:http://www.imdb.com/title/tt1241258/
Source:BluRay.x264-HD4U


Format : MPEG-4
Format profile : Base Media
Codec ID : isom
File size : 1.82 GiB
Duration : 1h 13mn
Overall bit rate : 3 549 Kbps


Video
Format profile : High@L4.1
Format settings, CABAC : Yes
Format settings, ReFrames : 3 frames
Codec ID : avc1
Codec ID/Info : Advanced Video Coding
Duration : 1h 13mn
Bit rate mode : Variable
Bit rate : 3 113 Kbps
Nominal bit rate : 3 346 Kbps
Maximum bit rate : 17.4 Mbps
Width : 1 280 pixels
Height : 544 pixels
Display aspect ratio : 2.35:1
Frame rate mode : Constant
Frame rate : 23.976 fps
Color space : YUV
Chroma subsampling : 4:2:0
Bit depth : 8 bits
Scan type : Progressive
Bits/(Pixel*Frame) : 0.186
Stream size : 1.60 GiB (88%)
Writing library : x264

Audio
ID : 2
Format : AAC
Format/Info : Advanced Audio Codec
Format version : Version 4
Format profile : LC
Format settings, SBR : No
Codec ID : 40
Duration : 1h 13mn
Bit rate mode : Variable
Bit rate : 433 Kbps
Maximum bit rate : 544 Kbps
Channel(s) : 6 channels
Channel positions : Front: L C R, Side: L R, LFE
Sampling rate : 48.0 KHz
Stream size : 228 MiB (12%)



Plot:
Darrin is traumatized by a horrific event he witnessed as a child. Now 25, he and his brother Sean travel to Italy to visit an old friend